# xmcd
#
# Track frame offsets: 
#        150
#        18715
#        32835
#        45770
#        59342
#        71602
#        86105
#        98967
#        111020
#        123152
#        132215
#        143907
#        154040
#        164275
#        174760
#
# Disc length: 2639 seconds
#
# Revision: 0
# Processed by: cddbd v1.5.1PL0 Copyright (c) Steve Scherf et al.
# Submitted via: ExactAudioCopy v0.95a3
#
DISCID=c00a4d0f
DTITLE=Various Artist - Savoy Christmas Blues
DYEAR=2003
DGENRE=Holiday
TTITLE0=Little Esther With Johnny Otis Orchestra/Far Away Christmas Bl
TTITLE0=ues
TTITLE1=The Ravens/White Christmas
TTITLE2=The Ravens/Silent Night
TTITLE3=Gatemouth Moore With Tiny Grimes Swingtet/Christmas Blues
TTITLE4=Dan Grissom/Wonderful Christmas Night
TTITLE5=The Meltones/White Christmas
TTITLE6=Johnny Guarnieri With Slam Stewart/Santa's Secret
TTITLE7=Washboard Pete/Christmas Blues
TTITLE8=Felix Gross/Love For Christmas
TTITLE9=Jimmy Butler/Trim Your Tree
TTITLE10=The Marshall Brothers/Mr. Santa's Boogie
TTITLE11=Debbie Dabney/I Want To Spend Christmas With Elvis
TTITLE12=Big Maybelle/White Christmas
TTITLE13=Big Maybelle/Silent Night
TTITLE14=Charlie Parker/White Christmas
EXTD=
EXTT0=
EXTT1=
EXTT2=
EXTT3=
EXTT4=
EXTT5=
EXTT6=
EXTT7=
EXTT8=
EXTT9=
EXTT10=
EXTT11=
EXTT12=
EXTT13=
EXTT14=
PLAYORDER=
